# xmcd
#
# Track frame offsets:
#	150
#	12410
#	26479
#	38690
#	52818
#	65441
#	78305
#	90487
#	105851
#	118197
#	131136
#	143474
#	158121
#	168654
#	177814
#	188455
#	200556
#	212943
#	224908
#	236657
#	250999
#	264282
#	274582
#	284096
#	296813
#	309629
#	321593
#	332422
#	343299
#
# Disc length: 4707
#
# Revision: 1
# Processed by: cddbd v1.5.1PL0 Copyright (c) Steve Scherf et al.
# Submitted via: audiograbber 1.80
# Normalized: r0:DSETVAR1
#
DISCID=b712611d
DTITLE=Various Artist - The Vee Jay Story [CD3]
DYEAR=1900
DGENRE=
TTITLE0=The Rhythm Aces - Get Lost
TTITLE1=The Five Echoes - Fool's Prayer
TTITLE2=Bill The KID Emerson - Every Woman I Know (Crazy 'Bout An Automobile)
TTITLE3=Red Holloway - Foolin' Around Slowly
TTITLE4=Bill The KID Emerson - Tomorrow Never Comes
TTITLE5=Bill Boy Arnold - Don't Stay Out All Night
TTITLE6=Paul Hucklebuck Williams - South Shore Drive
TTITLE7=Morris Pejoe - Hurt My Feelings
TTITLE8=L.C. McKinley - Blue Evening
TTITLE9=The Spaniels - (You Gave Me) Piece Of Mind
TTITLE10=Camille Howard - Rock'N'Roll Mama
TTITLE11=The Dells - Jo-Jo
TTITLE12=Dee Clark - Seven Nights
TTITLE13=Larry Birdsongs - If You Don't Want Me No More
TTITLE14=The Magnificents - Ozeta
TTITLE15=The El Cincos - Oh Baby, You Have To Go
TTITLE16=Lee Diamond and The Upsetters - Hattie Malatti
TTITLE17=Dillard Crume Jr. - It's You I Love
TTITLE18=The Prodigals - Judy
TTITLE19=Earl Phillips - Oop De Oop
TTITLE20=Duke Groner - Chico's Bounce
TTITLE21=Leonard Carbo - Pigtails And Blue Jeans
TTITLE22=Memphis Slim - Rockin' The House (Beer Drinkin' Woman)
TTITLE23=The Swan Silvertones - Oh Mary, Don't You Weep
TTITLE24=Kip Anderson - I Wanna Be The Only One
TTITLE25=Rosco Gordon - No More Doggin'
TTITLE26=Ray Smith - Rockin' Robin
TTITLE27=Hoyt Axton - Bring Your Lovin'
TTITLE28=Ray Smith - Robbin' The Cradle
EXTD=
EXTT0=
EXTT1=
EXTT2=
EXTT3=
EXTT4=
EXTT5=
EXTT6=
EXTT7=
EXTT8=
EXTT9=
EXTT10=
EXTT11=
EXTT12=
EXTT13=
EXTT14=
EXTT15=
EXTT16=
EXTT17=
EXTT18=
EXTT19=
EXTT20=
EXTT21=
EXTT22=
EXTT23=
EXTT24=
EXTT25=
EXTT26=
EXTT27=
EXTT28=
PLAYORDER=
